<mxfile host="app.diagrams.net" modified="2023-04-07T07:28:56.654Z" agent="Mozilla/5.0 (Windows NT 10.0; Win64; x64) AppleWebKit/537.36 (KHTML, like Gecko) Chrome/111.0.0.0 Safari/537.36 Edg/111.0.1661.62" etag="ezB4Sr3SKF_YArTkH_Ce" version="21.1.5" type="github">
  <diagram name="第 1 页" id="DxzEchVD7_Ap8OdAvR0T">
    <mxGraphModel dx="1050" dy="581" grid="1" gridSize="10" guides="1" tooltips="1" connect="1" arrows="1" fold="1" page="1" pageScale="1" pageWidth="827" pageHeight="1169" math="0" shadow="0">
      <root>
        <mxCell id="0" />
        <mxCell id="1" parent="0" />
        <mxCell id="Ru3LWTKlBys2lIhbO2xC-1" value="注册功能" style="text;html=1;strokeColor=none;fillColor=none;align=center;verticalAlign=middle;whiteSpace=wrap;rounded=0;" vertex="1" parent="1">
          <mxGeometry x="384" y="40" width="60" height="30" as="geometry" />
        </mxCell>
        <mxCell id="Ru3LWTKlBys2lIhbO2xC-2" value="音乐网站系统" style="ellipse;whiteSpace=wrap;html=1;" vertex="1" parent="1">
          <mxGeometry x="354" y="240" width="120" height="80" as="geometry" />
        </mxCell>
        <mxCell id="Ru3LWTKlBys2lIhbO2xC-5" style="edgeStyle=orthogonalEdgeStyle;rounded=0;orthogonalLoop=1;jettySize=auto;html=1;entryX=0.1;entryY=0.167;entryDx=0;entryDy=0;entryPerimeter=0;curved=1;" edge="1" parent="1" source="Ru3LWTKlBys2lIhbO2xC-3" target="Ru3LWTKlBys2lIhbO2xC-2">
          <mxGeometry relative="1" as="geometry" />
        </mxCell>
        <mxCell id="Ru3LWTKlBys2lIhbO2xC-3" value="用户" style="rounded=0;whiteSpace=wrap;html=1;" vertex="1" parent="1">
          <mxGeometry x="110" y="190" width="120" height="60" as="geometry" />
        </mxCell>
        <mxCell id="Ru3LWTKlBys2lIhbO2xC-7" style="edgeStyle=orthogonalEdgeStyle;curved=1;rounded=0;orthogonalLoop=1;jettySize=auto;html=1;entryX=0;entryY=0.5;entryDx=0;entryDy=0;" edge="1" parent="1" source="Ru3LWTKlBys2lIhbO2xC-6" target="Ru3LWTKlBys2lIhbO2xC-2">
          <mxGeometry relative="1" as="geometry" />
        </mxCell>
        <mxCell id="Ru3LWTKlBys2lIhbO2xC-6" value="管理员" style="rounded=0;whiteSpace=wrap;html=1;" vertex="1" parent="1">
          <mxGeometry x="110" y="310" width="120" height="60" as="geometry" />
        </mxCell>
      </root>
    </mxGraphModel>
  </diagram>
</mxfile>
